<svg width="564" height="617" viewBox="0 0 564 617" fill="none" xmlns="http://www.w3.org/2000/svg">
   <path
      d="M242.116 395.367C238.298 397.365 234.28 398.967 230.027 400.003C224.042 401.461 217.975 402.593 211.861 403.345C180.756 407.172 149.123 400.152 125.251 379.07C85.741 344.178 125.251 277.985 125.251 277.985H0.563995V290.813C5.535 290.813 9.934 293.352 13.446 296.7C29.392 311.902 30.978 336.047 38.822 355.41C49.557 381.908 64.926 406.802 86.149 426.183C101.717 440.4 120.155 451.29 140.151 457.982C154.425 462.759 169.421 465.466 184.466 465.961C190.61 466.163 196.627 465.778 202.733 465.274C222.542 463.641 242.244 459.876 260.985 453.175C280.622 446.153 299.002 435.799 314.874 422.276C310.466 421.409 306.067 420.428 301.691 419.291C282.969 414.427 261.701 406.908 242.116 395.367ZM278.162 0.388L278.675 14.499C302.279 14.499 301.765 42.464 301.765 42.464V271.829C301.765 275.699 301.657 279.569 301.432 283.432C300.646 296.915 298.35 310.325 294.432 323.214C308.039 331.968 326.264 337.167 348.929 338.678L356.783 339.197C360.678 339.453 364.6 339.715 368.533 339.981C377.892 311.685 381.299 281.853 381.299 251.669V36.819C381.299 18.346 402.85 14.241 402.85 14.241V0.388H278.162Z"
      fill="white" />
   <path
      d="M558.128 444.234C539.994 385.338 485.11 360.733 428.673 352.794C409.192 350.053 389.558 348.491 369.923 347.147L368.055 347.02C364.127 346.754 360.209 346.493 356.317 346.237L350.265 345.837C349.663 345.797 349.061 345.758 348.459 345.718C348.435 345.716 348.41 345.714 348.386 345.712C346.818 345.607 345.271 345.482 343.741 345.342C343.266 345.299 342.789 345.244 342.313 345.197C341.206 345.087 340.104 344.972 339.017 344.844C338.457 344.778 337.897 344.704 337.336 344.632C336.304 344.5 335.281 344.361 334.267 344.211C333.699 344.128 333.133 344.042 332.565 343.952C331.486 343.781 330.42 343.599 329.363 343.408C328.874 343.32 328.385 343.238 327.897 343.145C326.393 342.859 324.909 342.556 323.45 342.23C323.076 342.147 322.706 342.051 322.333 341.964C321.205 341.702 320.088 341.429 318.988 341.142C318.424 340.995 317.862 340.841 317.301 340.687C316.333 340.42 315.379 340.142 314.433 339.856C313.898 339.695 313.362 339.539 312.831 339.37C311.496 338.945 310.183 338.501 308.895 338.037C308.35 337.841 307.814 337.629 307.273 337.424C306.418 337.1 305.572 336.768 304.739 336.427C304.138 336.181 303.538 335.933 302.943 335.675C301.916 335.23 300.909 334.769 299.916 334.296C299.191 333.951 298.476 333.59 297.762 333.226C297.037 332.856 296.317 332.481 295.611 332.095C294.983 331.752 294.358 331.406 293.739 331.047C292.979 330.606 292.238 330.151 291.502 329.691C290.927 329.332 290.347 328.983 289.782 328.61L286.13 326.261L286.181 326.092C282.069 323.019 278.264 319.508 274.866 315.493C258.175 295.772 253.165 258.133 274.464 239.918C280.491 234.764 287.364 230.537 294.708 227.009V178.124C283.721 181.675 273.146 186.321 263.279 192.293C185.285 239.5 175.022 288.246 192.981 331.862C211.562 376.988 258.663 400.821 303.462 412.462C335.604 420.814 368.84 420.631 401.073 427.814C424.881 433.12 450.763 442.985 465.518 463.534C472.042 472.62 475.659 483.368 476.315 494.515C478.074 524.416 459.662 552.119 433.151 564.522C405.27 577.566 372.24 577.486 342.548 571.838C322.933 568.106 303.853 561.641 285.856 553.018C211.967 517.613 192.981 499.653 192.981 499.653V585.344C192.981 585.344 208.375 573.029 241.214 591.501C274.054 609.973 416.188 640.761 503.932 582.778C550.477 552.024 574.934 498.814 558.128 444.234ZM388.355 209.201C394.399 209.29 400.437 209.617 406.443 210.255C464.426 216.412 507.528 261.054 507.528 261.054L522.408 188.191C522.408 188.191 506.501 195.888 484.95 188.191C473.601 184.138 434.355 172.404 388.355 169.094V209.201Z"
      fill="white" />
</svg>
   