<svg width="16" height="16" viewBox="0 0 16 16" fill="none" xmlns="http://www.w3.org/2000/svg">
   <path fill-rule="evenodd" clip-rule="evenodd"
      d="M0 4C0 2.89543 0.895431 2 2 2H14C15.1046 2 16 2.89543 16 4V12C16 13.1046 15.1046 14 14 14H2C0.895431 14 0 13.1046 0 12V4ZM1.33333 3.33333H2L8 6.66667L14 3.33333H14.6667H1.33333ZM14.6667 4.66667V12C14.6667 12.3682 14.3682 12.6667 14 12.6667H2C1.63181 12.6667 1.33333 12.3682 1.33333 12V4.66667L7.55279 7.77639C7.83431 7.91716 8.16569 7.91716 8.44721 7.77639L14.6667 4.66667Z"
      fill="black" />
</svg>
   