<svg width="16" height="16" viewBox="0 0 16 16" fill="none" xmlns="http://www.w3.org/2000/svg">
   <path
      d="M1.34128 3.73503C1.22208 2.33365 2.41049 1.3335 3.67441 1.3335H5.25729C6.01277 1.3335 6.69405 1.78804 6.9841 2.48562L7.76396 4.36118C8.03092 5.00321 7.91964 5.74034 7.47505 6.27496L6.64014 7.27894C7.17888 8.09736 7.85748 8.83529 8.63034 9.44618L9.7218 8.53473C10.2573 8.08754 10.9972 7.97563 11.6411 8.24444L13.5092 9.02444C14.2054 9.31514 14.6588 9.99572 14.6588 10.7502C14.6588 11.0104 14.6607 11.2709 14.6627 11.5341V11.5351C14.6647 11.7972 14.6667 12.0622 14.6667 12.3277C14.6667 13.5915 13.6666 14.7801 12.265 14.6605C6.57182 14.1744 1.8267 9.44206 1.34128 3.73503ZM3.67441 2.66683C3.04538 2.66683 2.62858 3.13727 2.66981 3.62203C3.10011 8.68089 7.33104 12.901 12.3784 13.332C12.8629 13.3733 13.3333 12.9568 13.3333 12.3277C13.3333 12.0677 13.3314 11.8074 13.3294 11.5441V11.5425C13.3274 11.2806 13.3254 11.0157 13.3254 10.7502C13.3254 10.5336 13.1953 10.3383 12.9955 10.2548L11.1273 9.47483C10.9425 9.39767 10.7301 9.42979 10.5764 9.55816L8.6884 11.1348L8.27005 10.8404C7.04715 9.97974 5.99913 8.8471 5.24494 7.55907L5.00864 7.15551L6.44989 5.42242C6.5775 5.26897 6.60945 5.05738 6.53282 4.87309L5.75296 2.99754C5.6697 2.7973 5.47414 2.66683 5.25729 2.66683H3.67441Z"
      fill="black" />
</svg>
   