<svg width="24" height="25" viewBox="0 0 24 25" fill="none" xmlns="http://www.w3.org/2000/svg">
   <path
      d="M22.2857 0.428589H1.70893C0.766071 0.428589 0 1.20537 0 2.15895V22.6982C0 23.6518 0.766071 24.4286 1.70893 24.4286H22.2857C23.2286 24.4286 24 23.6518 24 22.6982V2.15895C24 1.20537 23.2286 0.428589 22.2857 0.428589ZM7.25357 21H3.69643V9.54645H7.25893V21H7.25357ZM5.475 7.98216C4.33393 7.98216 3.4125 7.05537 3.4125 5.91966C3.4125 4.78395 4.33393 3.85716 5.475 3.85716C6.61071 3.85716 7.5375 4.78395 7.5375 5.91966C7.5375 7.06073 6.61607 7.98216 5.475 7.98216ZM20.5875 21H17.0304V15.4286C17.0304 14.1 17.0036 12.3911 15.1821 12.3911C13.3286 12.3911 13.0446 13.8375 13.0446 15.3322V21H9.4875V9.54645H12.9V11.1107H12.9482C13.425 10.2107 14.5875 9.26252 16.3179 9.26252C19.9179 9.26252 20.5875 11.6357 20.5875 14.7214V21Z"
      fill="#858585" />
</svg>
   